<svg width="215" height="44" viewBox="0 0 215 44" fill="none" xmlns="http://www.w3.org/2000/svg">
<rect width="44" height="44" rx="12" fill="#EBF3D4"/>
<path d="M10 10.1025V15.5562V15.6662V15.5562C10 17.1133 10.6794 18.492 11.7328 19.3842C12.2479 19.8205 12.5882 20.4097 12.5882 21.0636V30.1668C12.5882 31.1788 13.4579 32.0001 14.5294 32.0001C15.6009 32.0001 16.4706 31.1788 16.4706 30.1668V21.0636C16.4706 20.4097 16.8109 19.8205 17.326 19.3842C18.3794 18.492 19.0588 17.1133 19.0588 15.5562V10.1025V15.5562" stroke="#8BAA36" stroke-width="2" stroke-linecap="round" stroke-linejoin="round"/>
<path d="M14.5293 16.1112V10" stroke="#8BAA36" stroke-width="2" stroke-linecap="round" stroke-linejoin="round"/>
<path d="M31.9999 11.2852C31.9999 10.6106 31.4201 10.063 30.7058 10.063H29.4116C27.2673 10.063 25.5293 11.7045 25.5293 13.7297V21.0631C25.5293 22.6569 26.6125 24.0002 28.1175 24.5049V30.1663C28.1175 31.1784 28.9872 31.9997 30.0587 31.9997C31.1302 31.9997 31.9999 31.1784 31.9999 30.1663V24.7298V11.2852Z" stroke="#8BAA36" stroke-width="2" stroke-linecap="round" stroke-linejoin="round"/>
<path d="M64.848 32.196C63.4107 32.196 62.1227 31.9627 60.984 31.496C59.8453 31.0293 58.9307 30.3387 58.24 29.424C57.568 28.5093 57.2133 27.408 57.176 26.12H62.272C62.3467 26.848 62.5987 27.408 63.028 27.8C63.4573 28.1733 64.0173 28.36 64.708 28.36C65.4173 28.36 65.9773 28.2013 66.388 27.884C66.7987 27.548 67.004 27.0907 67.004 26.512C67.004 26.0267 66.836 25.6253 66.5 25.308C66.1827 24.9907 65.7813 24.7293 65.296 24.524C64.8293 24.3187 64.1573 24.0853 63.28 23.824C62.0107 23.432 60.9747 23.04 60.172 22.648C59.3693 22.256 58.6787 21.6773 58.1 20.912C57.5213 20.1467 57.232 19.148 57.232 17.916C57.232 16.0867 57.8947 14.6587 59.22 13.632C60.5453 12.5867 62.272 12.064 64.4 12.064C66.5653 12.064 68.3107 12.5867 69.636 13.632C70.9613 14.6587 71.6707 16.096 71.764 17.944H66.584C66.5467 17.3093 66.3133 16.8147 65.884 16.46C65.4547 16.0867 64.904 15.9 64.232 15.9C63.6533 15.9 63.1867 16.0587 62.832 16.376C62.4773 16.6747 62.3 17.1133 62.3 17.692C62.3 18.3267 62.5987 18.8213 63.196 19.176C63.7933 19.5307 64.7267 19.9133 65.996 20.324C67.2653 20.7533 68.292 21.164 69.076 21.556C69.8787 21.948 70.5693 22.5173 71.148 23.264C71.7267 24.0107 72.016 24.972 72.016 26.148C72.016 27.268 71.7267 28.2853 71.148 29.2C70.588 30.1147 69.7667 30.8427 68.684 31.384C67.6013 31.9253 66.3227 32.196 64.848 32.196ZM82.4946 32.224C80.9639 32.224 79.5826 31.8973 78.3506 31.244C77.1372 30.5907 76.1759 29.6573 75.4666 28.444C74.7759 27.2307 74.4306 25.812 74.4306 24.188C74.4306 22.5827 74.7852 21.1733 75.4946 19.96C76.2039 18.728 77.1746 17.7853 78.4066 17.132C79.6386 16.4787 81.0199 16.152 82.5506 16.152C84.0812 16.152 85.4626 16.4787 86.6946 17.132C87.9266 17.7853 88.8972 18.728 89.6066 19.96C90.3159 21.1733 90.6706 22.5827 90.6706 24.188C90.6706 25.7933 90.3066 27.212 89.5786 28.444C88.8692 29.6573 87.8892 30.5907 86.6386 31.244C85.4066 31.8973 84.0252 32.224 82.4946 32.224ZM82.4946 28.08C83.4092 28.08 84.1839 27.744 84.8186 27.072C85.4719 26.4 85.7986 25.4387 85.7986 24.188C85.7986 22.9373 85.4812 21.976 84.8466 21.304C84.2306 20.632 83.4652 20.296 82.5506 20.296C81.6172 20.296 80.8426 20.632 80.2266 21.304C79.6106 21.9573 79.3026 22.9187 79.3026 24.188C79.3026 25.4387 79.6012 26.4 80.1986 27.072C80.8146 27.744 81.5799 28.08 82.4946 28.08ZM116.84 12.344L110.036 25.504V32H105.248V25.504L98.4443 12.344H103.876L107.684 20.576L111.464 12.344H116.84ZM134.617 16.376V32H129.829V29.872C129.344 30.5627 128.681 31.1227 127.841 31.552C127.02 31.9627 126.105 32.168 125.097 32.168C123.903 32.168 122.848 31.9067 121.933 31.384C121.019 30.8427 120.309 30.068 119.805 29.06C119.301 28.052 119.049 26.8667 119.049 25.504V16.376H123.809V24.86C123.809 25.9053 124.08 26.7173 124.621 27.296C125.163 27.8747 125.891 28.164 126.805 28.164C127.739 28.164 128.476 27.8747 129.017 27.296C129.559 26.7173 129.829 25.9053 129.829 24.86V16.376H134.617ZM158.413 16.208C160.354 16.208 161.894 16.796 163.033 17.972C164.19 19.148 164.769 20.7813 164.769 22.872V32H160.009V23.516C160.009 22.508 159.738 21.7333 159.197 21.192C158.674 20.632 157.946 20.352 157.013 20.352C156.079 20.352 155.342 20.632 154.801 21.192C154.278 21.7333 154.017 22.508 154.017 23.516V32H149.257V23.516C149.257 22.508 148.986 21.7333 148.445 21.192C147.922 20.632 147.194 20.352 146.261 20.352C145.327 20.352 144.59 20.632 144.049 21.192C143.526 21.7333 143.265 22.508 143.265 23.516V32H138.477V16.376H143.265V18.336C143.75 17.6827 144.385 17.1693 145.169 16.796C145.953 16.404 146.839 16.208 147.829 16.208C149.005 16.208 150.05 16.46 150.965 16.964C151.898 17.468 152.626 18.1867 153.149 19.12C153.69 18.2613 154.427 17.5613 155.361 17.02C156.294 16.4787 157.311 16.208 158.413 16.208ZM188.473 16.208C190.415 16.208 191.955 16.796 193.093 17.972C194.251 19.148 194.829 20.7813 194.829 22.872V32H190.069V23.516C190.069 22.508 189.799 21.7333 189.257 21.192C188.735 20.632 188.007 20.352 187.073 20.352C186.14 20.352 185.403 20.632 184.861 21.192C184.339 21.7333 184.077 22.508 184.077 23.516V32H179.317V23.516C179.317 22.508 179.047 21.7333 178.505 21.192C177.983 20.632 177.255 20.352 176.321 20.352C175.388 20.352 174.651 20.632 174.109 21.192C173.587 21.7333 173.325 22.508 173.325 23.516V32H168.537V16.376H173.325V18.336C173.811 17.6827 174.445 17.1693 175.229 16.796C176.013 16.404 176.9 16.208 177.889 16.208C179.065 16.208 180.111 16.46 181.025 16.964C181.959 17.468 182.687 18.1867 183.209 19.12C183.751 18.2613 184.488 17.5613 185.421 17.02C186.355 16.4787 187.372 16.208 188.473 16.208ZM214.558 16.376L204.758 39.42H199.606L203.19 31.468L196.834 16.376H202.182L205.794 26.148L209.378 16.376H214.558Z" fill="#FAFAFA"/>
</svg>
